<svg width="18" height="16" viewBox="0 0 18 16" fill="none" xmlns="http://www.w3.org/2000/svg">
<path fill-rule="evenodd" clip-rule="evenodd" d="M1.66248 8.9376C1.66248 8.50958 2.00945 8.1626 2.43748 8.1626H6.81248C7.2405 8.1626 7.58748 8.50958 7.58748 8.9376C7.58748 9.36562 7.2405 9.7126 6.81248 9.7126H3.21248V14.5626C3.21248 14.9906 2.8655 15.3376 2.43748 15.3376C2.00945 15.3376 1.66248 14.9906 1.66248 14.5626V8.9376Z" fill="white"/>
<path fill-rule="evenodd" clip-rule="evenodd" d="M0.412476 14.5626C0.412476 14.1346 0.759455 13.7876 1.18748 13.7876H16.8125C17.2405 13.7876 17.5875 14.1346 17.5875 14.5626C17.5875 14.9906 17.2405 15.3376 16.8125 15.3376H1.18748C0.759455 15.3376 0.412476 14.9906 0.412476 14.5626Z" fill="white"/>
<path fill-rule="evenodd" clip-rule="evenodd" d="M6.03748 5.1876C6.03748 4.75958 6.38445 4.4126 6.81248 4.4126H11.1875C11.6155 4.4126 11.9625 4.75958 11.9625 5.1876C11.9625 5.61562 11.6155 5.9626 11.1875 5.9626H7.58748V14.5626C7.58748 14.9906 7.2405 15.3376 6.81248 15.3376C6.38445 15.3376 6.03748 14.9906 6.03748 14.5626V5.1876Z" fill="white"/>
<path fill-rule="evenodd" clip-rule="evenodd" d="M10.4125 1.4376C10.4125 1.00958 10.7595 0.662598 11.1875 0.662598H15.5625C15.9905 0.662598 16.3375 1.00958 16.3375 1.4376V14.5626C16.3375 14.9906 15.9905 15.3376 15.5625 15.3376H11.1875C10.7595 15.3376 10.4125 14.9906 10.4125 14.5626V1.4376ZM11.9625 2.2126V13.7876H14.7875V2.2126H11.9625Z" fill="white"/>
</svg>
