<svg width="14" height="12" viewBox="0 0 14 12" fill="none" xmlns="http://www.w3.org/2000/svg">
<path fill-rule="evenodd" clip-rule="evenodd" d="M1.08956 7.93375C1.29784 7.72547 1.63553 7.72547 1.84381 7.93375L4.10755 10.1975L6.37129 7.93375C6.57957 7.72547 6.91726 7.72547 7.12554 7.93375C7.33382 8.14203 7.33382 8.47972 7.12554 8.688L4.48467 11.3289C4.27639 11.5371 3.93871 11.5371 3.73043 11.3289L1.08956 8.688C0.88128 8.47972 0.88128 8.14203 1.08956 7.93375Z" fill="#4D4D4D"/>
<path fill-rule="evenodd" clip-rule="evenodd" d="M4.1075 0.515153C4.40205 0.515153 4.64084 0.753934 4.64084 1.04849L4.64084 10.9517C4.64084 11.2463 4.40205 11.4851 4.1075 11.4851C3.81295 11.4851 3.57417 11.2463 3.57417 10.9517L3.57417 1.04849C3.57417 0.753934 3.81295 0.515153 4.1075 0.515153Z" fill="#4D4D4D"/>
<path fill-rule="evenodd" clip-rule="evenodd" d="M13.8438 4.06646C13.6355 4.27474 13.2978 4.27474 13.0895 4.06646L10.8258 1.80272L8.56205 4.06646C8.35377 4.27474 8.01609 4.27474 7.80781 4.06646C7.59953 3.85818 7.59953 3.52049 7.80781 3.31221L10.4487 0.671346C10.657 0.463067 10.9946 0.463067 11.2029 0.671346L13.8438 3.31221C14.0521 3.52049 14.0521 3.85818 13.8438 4.06646Z" fill="#4D4D4D"/>
<path fill-rule="evenodd" clip-rule="evenodd" d="M10.8258 11.4851C10.5313 11.4851 10.2925 11.2463 10.2925 10.9517L10.2925 1.04847C10.2925 0.753922 10.5313 0.515141 10.8258 0.515141C11.1204 0.515142 11.3592 0.753922 11.3592 1.04847L11.3592 10.9517C11.3592 11.2463 11.1204 11.4851 10.8258 11.4851Z" fill="#4D4D4D"/>
</svg>
