<svg width="20" height="16" viewBox="0 0 20 16" fill="none" xmlns="http://www.w3.org/2000/svg">
<path fill-rule="evenodd" clip-rule="evenodd" d="M0.833313 1.03682C0.833313 0.652161 1.14378 0.340332 1.52677 0.340332H13.0812C13.4641 0.340332 13.7746 0.652161 13.7746 1.03682V11.0945C13.7746 11.4791 13.4641 11.791 13.0812 11.791H1.52677C1.14378 11.791 0.833313 11.4791 0.833313 11.0945V1.03682ZM2.22022 1.73331V10.398H12.3877V1.73331H2.22022Z" fill="white"/>
<path fill-rule="evenodd" clip-rule="evenodd" d="M12.3877 4.90518C12.3877 4.52052 12.6982 4.20869 13.0811 4.20869H16.1623C16.3462 4.20869 16.5226 4.28207 16.6527 4.41269L18.9635 6.73369C19.0936 6.8643 19.1666 7.04146 19.1666 7.22618V11.0945C19.1666 11.4792 18.8562 11.791 18.4732 11.791L13.0812 11.791C12.6982 11.791 12.3877 11.4792 12.3877 11.0945V4.90518ZM13.7746 5.60167V10.398H17.7797V7.51467L15.8751 5.60167H13.7746Z" fill="white"/>
<path fill-rule="evenodd" clip-rule="evenodd" d="M4.99304 11.791C4.31247 11.791 3.76076 12.3451 3.76076 13.0286C3.76076 13.7122 4.31247 14.2663 4.99304 14.2663C5.6736 14.2663 6.22531 13.7122 6.22531 13.0286C6.22531 12.3451 5.6736 11.791 4.99304 11.791ZM2.37385 13.0286C2.37385 11.5758 3.5465 10.398 4.99304 10.398C6.43957 10.398 7.61222 11.5758 7.61222 13.0286C7.61222 14.4815 6.43957 15.6593 4.99304 15.6593C3.5465 15.6593 2.37385 14.4815 2.37385 13.0286Z" fill="white"/>
<path fill-rule="evenodd" clip-rule="evenodd" d="M15.0069 11.791C14.3263 11.791 13.7746 12.3451 13.7746 13.0286C13.7746 13.7122 14.3263 14.2663 15.0069 14.2663C15.6874 14.2663 16.2392 13.7122 16.2392 13.0286C16.2392 12.3451 15.6874 11.791 15.0069 11.791ZM12.3877 13.0286C12.3877 11.5758 13.5603 10.398 15.0069 10.398C16.4534 10.398 17.6261 11.5758 17.6261 13.0286C17.6261 14.4815 16.4534 15.6593 15.0069 15.6593C13.5603 15.6593 12.3877 14.4815 12.3877 13.0286Z" fill="white"/>
</svg>
