<svg width="14" height="14" viewBox="0 0 14 14" fill="none" xmlns="http://www.w3.org/2000/svg">
<path fill-rule="evenodd" clip-rule="evenodd" d="M7.77762 10.1808C7.77762 10.6103 7.42947 10.9584 7.00001 10.9584C6.57054 10.9584 6.22239 10.6103 6.22239 10.1808C6.22239 9.75137 6.57054 9.40322 7.00001 9.40322C7.42947 9.40322 7.77762 9.75137 7.77762 10.1808Z" fill="#4D4D4D"/>
<path fill-rule="evenodd" clip-rule="evenodd" d="M6.12703 3.40771C6.54384 3.23506 7.00249 3.18988 7.44498 3.2779C7.88747 3.36592 8.29392 3.58317 8.61294 3.90219C8.93196 4.2212 9.14921 4.62765 9.23723 5.07014C9.32524 5.51263 9.28007 5.97128 9.10742 6.3881C8.93477 6.80491 8.6424 7.16117 8.26727 7.41182C8.02318 7.57492 7.75117 7.68854 7.46663 7.74801V7.84799C7.46663 8.10573 7.2577 8.31466 6.99996 8.31466C6.74223 8.31466 6.5333 8.10573 6.5333 7.84799V7.32959C6.5333 7.20582 6.58246 7.08712 6.66998 6.9996C6.7575 6.91209 6.8762 6.86292 6.99996 6.86292C7.26653 6.86292 7.5271 6.78388 7.74874 6.63578C7.97038 6.48769 8.14312 6.2772 8.24513 6.03093C8.34714 5.78466 8.37383 5.51367 8.32183 5.25223C8.26982 4.99079 8.14146 4.75064 7.95298 4.56215C7.76449 4.37366 7.52434 4.2453 7.2629 4.1933C7.00146 4.14129 6.73047 4.16799 6.4842 4.26999C6.23793 4.372 6.02744 4.54475 5.87934 4.76639C5.73125 4.98802 5.65221 5.2486 5.65221 5.51516C5.65221 5.77289 5.44327 5.98183 5.18554 5.98183C4.92781 5.98183 4.71887 5.77289 4.71887 5.51516C4.71887 5.064 4.85266 4.62298 5.10331 4.24785C5.35396 3.87273 5.71021 3.58036 6.12703 3.40771Z" fill="#4D4D4D"/>
<path fill-rule="evenodd" clip-rule="evenodd" d="M6.99998 1.63353C4.03605 1.63353 1.63332 4.03627 1.63332 7.0002C1.63332 9.96412 4.03605 12.3669 6.99998 12.3669C9.96391 12.3669 12.3666 9.96412 12.3666 7.0002C12.3666 4.03627 9.96391 1.63353 6.99998 1.63353ZM0.699982 7.0002C0.699982 3.5208 3.52059 0.700195 6.99998 0.700195C10.4794 0.700195 13.3 3.5208 13.3 7.0002C13.3 10.4796 10.4794 13.3002 6.99998 13.3002C3.52059 13.3002 0.699982 10.4796 0.699982 7.0002Z" fill="#4D4D4D"/>
</svg>
