<svg width="18" height="18" viewBox="0 0 18 18" fill="none" xmlns="http://www.w3.org/2000/svg">
<path d="M16.0809 9.83317C16.7713 9.83317 17.3309 10.3928 17.3309 11.0832V16.0832C17.3309 16.7735 16.7713 17.3332 16.0809 17.3332H11.0809C10.3906 17.3332 9.83091 16.7735 9.83091 16.0832V11.0832C9.83091 10.3928 10.3906 9.83317 11.0809 9.83317H16.0809ZM6.91669 9.83317C7.60704 9.83317 8.16669 10.3928 8.16669 11.0832V16.0832C8.16669 16.7735 7.60704 17.3332 6.91669 17.3332H1.91669C1.22633 17.3332 0.666687 16.7735 0.666687 16.0832V11.0832C0.666687 10.3928 1.22633 9.83317 1.91669 9.83317H6.91669ZM15.9142 11.2498H11.2475V15.9165H15.9142V11.2498ZM6.75002 11.2498H2.08335V15.9165H6.75002V11.2498ZM6.91669 0.666504C7.60704 0.666504 8.16669 1.22615 8.16669 1.9165V6.9165C8.16669 7.60686 7.60704 8.1665 6.91669 8.1665H1.91669C1.22633 8.1665 0.666687 7.60686 0.666687 6.9165V1.9165C0.666687 1.22615 1.22633 0.666504 1.91669 0.666504H6.91669ZM16.0809 0.666504C16.7713 0.666504 17.3309 1.22615 17.3309 1.9165V6.9165C17.3309 7.60686 16.7713 8.1665 16.0809 8.1665H11.0809C10.3906 8.1665 9.83091 7.60686 9.83091 6.9165V1.9165C9.83091 1.22615 10.3906 0.666504 11.0809 0.666504H16.0809ZM6.75002 2.08317H2.08335V6.74984H6.75002V2.08317ZM15.9142 2.08317H11.2475V6.74984H15.9142V2.08317Z" fill="white"/>
</svg>
